<svg xmlns="http://www.w3.org/2000/svg" width="128" height="128" viewBox="0 0 128 128">
  <defs>
    <linearGradient id="grad" x1="0%" y1="0%" x2="100%" y2="100%">
      <stop offset="0%" style="stop-color:#667eea;stop-opacity:1" />
      <stop offset="100%" style="stop-color:#764ba2;stop-opacity:1" />
    </linearGradient>
  </defs>
  <!-- Background -->
  <rect width="128" height="128" rx="24" fill="url(#grad)"/>
  <!-- Flask body -->
  <path d="M48 32 L48 52 L32 88 C28 96 34 104 44 104 L84 104 C94 104 100 96 96 88 L80 52 L80 32" 
        fill="white" fill-opacity="0.95"/>
  <!-- Flask neck -->
  <rect x="46" y="24" width="36" height="12" rx="2" fill="white" fill-opacity="0.95"/>
  <!-- Bubbles/experiment dots -->
  <circle cx="52" cy="78" r="6" fill="#667eea"/>
  <circle cx="68" cy="86" r="5" fill="#764ba2"/>
  <circle cx="76" cy="72" r="4" fill="#667eea"/>
  <!-- Sparkle -->
  <path d="M92 24 L94 30 L100 32 L94 34 L92 40 L90 34 L84 32 L90 30 Z" fill="#fbbf24"/>
</svg>
